<svg id="_002-planet-earth" data-name="002-planet-earth" xmlns="http://www.w3.org/2000/svg" viewBox="0 0 512 512">
  <defs>
    <style>
      .cls-1 {
        fill: #fff;
      }
    </style>
  </defs>
  <g id="Group_885" data-name="Group 885">
    <path id="Path_27" data-name="Path 27" class="cls-1" d="M437.019,74.981A256,256,0,1,0,74.981,437.019,256,256,0,1,0,437.019,74.981Zm-61.039,35.05,11.254-46.752a234.1,234.1,0,0,1,93.423,129.958l-5.895,1.134a23.155,23.155,0,0,0-18.046,17.112l-2.287,9.218a.26.26,0,0,1-.209.231.263.263,0,0,1-.308-.047l-13.659-10.243a23.193,23.193,0,0,0-24.558-1.984l-17.046,8.924a23.086,23.086,0,0,0,2.6,42.066l.808.3a.329.329,0,0,1,.132.525l-10.618,12.211a.332.332,0,0,1-.429.06l-28.62-18.466a23.083,23.083,0,0,0-35.3,15.668l-2.208,13.493a23.04,23.04,0,0,0,7.009,20.586L346.95,318a.328.328,0,0,1,.05.422l-24.326,36.875a23.1,23.1,0,0,0-3.8,11.789l-2.111,52.793a.323.323,0,0,1-.1.221l-32.395,31.753a.332.332,0,0,1-.4.05l-21.006-12.3a.33.33,0,0,1-.156-.214s-10.191-46.244-10.572-47.269l-9.265-24.868A23.19,23.19,0,0,0,223.242,352.3l-42.4-3.688a.326.326,0,0,1-.257-.164L156.461,306.86a.337.337,0,0,1-.041-.215l6.067-40.337a.33.33,0,0,1,.127-.215l37.037-27.945a.334.334,0,0,1,.327-.041l35.888,14.972a23.119,23.119,0,0,0,6.391,1.643l49.706,5.4a23.038,23.038,0,0,0,15.944-4.188l32.932-23.6a23.167,23.167,0,0,0,7.63-28.177l-3.055-6.838A22.994,22.994,0,0,0,325.6,183.682l-92.487-5.064a.335.335,0,0,1-.144-.043c-.094-.053-.144-.1-.149-.1h0a.666.666,0,0,1,.042-.44.8.8,0,0,1,.185-.071l27.766-7.484a23.159,23.159,0,0,0,9.838-5.5l33.956-32.043a.329.329,0,0,1,.191-.088l51.1-5.263A23.116,23.116,0,0,0,375.98,110.031Zm-173.1-18.787,19.1-35.958a26,26,0,0,0,2.5-17.384l-2.594-12.645a233.943,233.943,0,0,1,68.5.04,34.093,34.093,0,0,1-3.21,3.181L260.127,39.331a26.068,26.068,0,0,0-10.052,7.211L207.918,95.816a3.187,3.187,0,0,1-4.842,0C201.577,94.151,202.732,91.522,202.878,91.244ZM103.424,79.718v34.139a27.917,27.917,0,0,1-12.777,23.506l-24.5,15.9a50.537,50.537,0,0,0-14.3,13.972l-22.234,32.58A233.578,233.578,0,0,1,103.424,79.718Zm14.871,335.867-3.223,26.139a234.22,234.22,0,0,1-79.735-110.13H49.823a5.18,5.18,0,0,1,4.369,2.389L83.467,379.6a28.067,28.067,0,0,0,4.688,5.552l28.479,25.975A5.192,5.192,0,0,1,118.295,415.585ZM256,489.244a231.822,231.822,0,0,1-119.767-33.172l4.647-37.7a27.993,27.993,0,0,0-8.909-24.064s-29.1-26.624-29.355-27L73.341,321.695a27.823,27.823,0,0,0-23.518-12.857H28.793A233.137,233.137,0,0,1,22.755,256q0-2.943.074-5.866l47.815-70.069a27.746,27.746,0,0,1,7.9-7.725l24.485-15.883a50.6,50.6,0,0,0,23.154-42.6V62.316a232.167,232.167,0,0,1,73.389-32.643l2.626,12.8a3.2,3.2,0,0,1-.308,2.136l-19.1,35.957a56.484,56.484,0,0,0-2.741,8.149,25.945,25.945,0,0,0,25.427,30.973,26.1,26.1,0,0,0,19.738-9.078L267.364,61.34a3.2,3.2,0,0,1,1.236-.887L295.655,49.6a26.041,26.041,0,0,0,10.011-7.162l10.213-11.875A231.786,231.786,0,0,1,367,50.9c-.264.6-13.142,53.8-13.142,53.8a.329.329,0,0,1-.287.25l-51.107,5.263a23.206,23.206,0,0,0-13.478,6.174l-33.956,32.043a.316.316,0,0,1-.14.077L227.119,156a23.085,23.085,0,0,0,4.746,45.341l92.487,5.064a.329.329,0,0,1,.282.2l3.054,6.836a.33.33,0,0,1-.11.4l-32.932,23.6a.318.318,0,0,1-.226.06l-49.8-5.425-35.884-14.97a23.164,23.164,0,0,0-22.793,2.876L148.909,247.93a22.954,22.954,0,0,0-8.922,14.994l-6.068,40.338a23.175,23.175,0,0,0,2.859,15.013L160.9,359.869a23.111,23.111,0,0,0,17.97,11.418l42.4,3.688a.33.33,0,0,1,.28.214l9.277,24.913,9.652,44.141a23.158,23.158,0,0,0,10.883,14.987l21.007,12.306A23.132,23.132,0,0,0,300.2,468.1L332.6,436.349a23,23,0,0,0,6.909-15.565l2.111-52.789a.3.3,0,0,1,.055-.169L366,330.951a23.03,23.03,0,0,0-3.5-29.567l-14.927-13.967a.332.332,0,0,1-.1-.294l2.21-13.494a.329.329,0,0,1,.5-.224L378.8,291.871a23.2,23.2,0,0,0,29.936-4.248l10.618-12.211a23.083,23.083,0,0,0-9.307-36.761l-.808-.3a1.068,1.068,0,0,1-.158-.073.6.6,0,0,1-.034-.428.743.743,0,0,1,.155-.1l17.046-8.925a.329.329,0,0,1,.35.028l13.659,10.243a23.084,23.084,0,0,0,36.256-12.91l2.287-9.217a.329.329,0,0,1,.258-.245l6.647-1.278A233.47,233.47,0,0,1,489.248,256C489.244,384.612,384.611,489.244,256,489.244Z"/>
  </g>
</svg>
