<svg xmlns="http://www.w3.org/2000/svg" viewBox="0 0 512 445.781">
  <defs>
    <style>
      .cls-1 {
        fill: #c3c3c7;
      }

      .cls-2 {
        fill: #dedee0;
      }
    </style>
  </defs>
  <g id="_004-telegram-1" data-name="004-telegram-1" transform="translate(0 -33.11)">
    <path id="Path_30" data-name="Path 30" class="cls-1" d="M165.323,267.452,395.89,125.446c4.144-2.545,8.407,3.058,4.849,6.359L210.454,308.684a39.448,39.448,0,0,0-12.225,23.6l-6.482,48.036a5.959,5.959,0,0,1-11.638.843l-24.929-87.6A23.217,23.217,0,0,1,165.323,267.452Z"/>
    <path id="Path_31" data-name="Path 31" class="cls-2" d="M9.043,246.86l117.975,44.032,45.664,146.854a13.888,13.888,0,0,0,22.057,6.641l65.761-53.61a19.618,19.618,0,0,1,23.916-.667l118.61,86.113a13.9,13.9,0,0,0,21.784-8.407L511.7,49.869a13.908,13.908,0,0,0-18.62-15.8L8.9,220.845C-3.043,225.453-2.939,242.369,9.043,246.86Zm156.28,20.592L395.89,125.446c4.144-2.545,8.407,3.058,4.849,6.359L210.454,308.684a39.448,39.448,0,0,0-12.225,23.6l-6.482,48.036a5.959,5.959,0,0,1-11.638.843l-24.929-87.6A23.217,23.217,0,0,1,165.323,267.452Z"/>
  </g>
</svg>
