<svg xmlns="http://www.w3.org/2000/svg" viewBox="0 0 512.001 416.09">
  <defs>
    <style>
      .cls-1 {
        fill: #fff;
      }
    </style>
  </defs>
  <g id="_006-tweet" data-name="006-tweet" transform="translate(-0.001 -47.956)">
    <path id="Path_34" data-name="Path 34" class="cls-1" d="M512,97.211a210.037,210.037,0,0,1-60.33,16.54,105.363,105.363,0,0,0,46.186-58.115,210.289,210.289,0,0,1-66.7,25.49,105.141,105.141,0,0,0-179,95.808A298.216,298.216,0,0,1,35.648,67.181,105.156,105.156,0,0,0,68.155,207.423a104.614,104.614,0,0,1-47.577-13.139c-.01.438-.01.878-.01,1.321a105.11,105.11,0,0,0,84.261,103,105.154,105.154,0,0,1-47.438,1.8,105.148,105.148,0,0,0,98.126,72.949A210.746,210.746,0,0,1,25.059,418.32,212.616,212.616,0,0,1,0,416.849a297.294,297.294,0,0,0,161.021,47.2c193.211,0,298.868-160.062,298.868-298.872q0-6.831-.3-13.59A213.4,213.4,0,0,0,512,97.211Z"/>
  </g>
</svg>
