<svg id="_007-whatsapp" data-name="007-whatsapp" xmlns="http://www.w3.org/2000/svg" viewBox="0 0 308 308">
  <defs>
    <style>
      .cls-1 {
        fill: #fff;
      }
    </style>
  </defs>
  <path id="XMLID_469_" class="cls-1" d="M227.9,176.981c-.6-.288-23.054-11.345-27.044-12.781a15.533,15.533,0,0,0-5.23-1.156c-3.032,0-5.579,1.511-7.563,4.479-2.243,3.334-9.033,11.271-11.131,13.642-.274.313-.648.687-.872.687-.2,0-3.676-1.431-4.728-1.888-24.087-10.463-42.37-35.624-44.877-39.867a2.48,2.48,0,0,1-.376-.887,7.238,7.238,0,0,1,1.316-1.554c1.223-1.21,2.548-2.8,3.83-4.348.607-.731,1.215-1.463,1.812-2.153a24.187,24.187,0,0,0,3.648-5.79l.5-1.011a10.47,10.47,0,0,0-.3-9.856c-.531-1.062-10.012-23.944-11.02-26.348-2.424-5.8-5.627-8.5-10.078-8.5-.413,0,0,0-1.732.073-2.109.089-13.594,1.6-18.672,4.8C90,87.918,80.89,98.74,80.89,117.772c0,17.129,10.87,33.3,15.537,39.453.116.155.329.47.638.922,17.873,26.1,40.154,45.446,62.741,54.469,21.745,8.686,32.042,9.69,37.9,9.69h0a59.213,59.213,0,0,0,6.166-.364l1.1-.1c7.512-.666,24.02-9.22,27.775-19.655,2.958-8.219,3.738-17.2,1.77-20.458C233.168,179.508,230.845,178.393,227.9,176.981Z"/>
  <path id="XMLID_470_" class="cls-1" d="M156.734,0C73.318,0,5.454,67.354,5.454,150.143a149.039,149.039,0,0,0,20.741,75.928L.212,302.716a4,4,0,0,0,5,5.1l79.92-25.4a152.3,152.3,0,0,0,71.6,17.853C240.143,300.27,308,232.923,308,150.143S240.143,0,156.734,0Zm0,268.994A119.845,119.845,0,0,1,90.8,249.337a4,4,0,0,0-3.406-.467L47.357,261.6l12.924-38.129a4,4,0,0,0-.561-3.647,117.235,117.235,0,0,1-22.813-69.677c0-65.543,53.754-118.867,119.826-118.867S276.545,84.6,276.545,150.143,222.8,268.994,156.734,268.994Z"/>
</svg>
