<svg xmlns="http://www.w3.org/2000/svg" viewBox="0 0 393.541 333.942">
  <defs>
    <style>
      .cls-1 {
        fill: #fff;
      }

      .cls-2 {
        fill: #e1e1e1;
      }

      .cls-3 {
        fill: #c2c2c2;
      }

      .cls-4 {
        fill: #cfcfcf;
      }
    </style>
  </defs>
  <g id="_008-medium" data-name="008-medium" transform="translate(0 -29.8)">
    <path id="Path_35" data-name="Path 35" class="cls-1" d="M384.045,363.079,262.84,304.812,261.927,40.68A8.353,8.353,0,0,1,273.9,33.123L388.808,88.379a8.354,8.354,0,0,1,4.733,7.528v261.2A6.625,6.625,0,0,1,384.045,363.079Z"/>
    <path id="Path_36" data-name="Path 36" class="cls-2" d="M262.84,304.812,131.66,241.74,257.948,33.818a8.354,8.354,0,0,1,10.759-3.192L385.221,86.655a8.352,8.352,0,0,1,3.51,11.879Z"/>
    <path id="Path_37" data-name="Path 37" class="cls-3" d="M262.84,304.812,131.66,241.74,11.421,45.942a6.416,6.416,0,0,1,8.248-9.14L131.66,90.655Z"/>
    <path id="Path_38" data-name="Path 38" class="cls-4" d="M122.164,363.078,3.754,306.138A6.626,6.626,0,0,1,0,300.167V37.548a6.416,6.416,0,0,1,9.2-5.782L131.66,90.655V357.107A6.625,6.625,0,0,1,122.164,363.078Z"/>
  </g>
</svg>
