<svg xmlns="http://www.w3.org/2000/svg" viewBox="0 0 300 261.2">
  <defs>
    <style>
      .cls-1 {
        fill: #fff;
      }
    </style>
  </defs>
  <g id="_003-telegram" data-name="003-telegram" transform="translate(0 -19.401)">
    <path id="XMLID_497_" class="cls-1" d="M5.3,144.645l69.126,25.8,26.756,86.047a8.137,8.137,0,0,0,12.924,3.891l38.532-31.412a11.5,11.5,0,0,1,14.013-.391l69.5,50.457a8.145,8.145,0,0,0,12.764-4.926L299.823,29.22a8.149,8.149,0,0,0-10.91-9.259L5.218,129.4A8.153,8.153,0,0,0,5.3,144.645Zm91.57,12.066L231.967,73.5a2.354,2.354,0,0,1,2.841,3.726l-111.5,103.64A23.112,23.112,0,0,0,116.15,194.7l-3.8,28.146a3.492,3.492,0,0,1-6.819.494L90.926,172.014A13.6,13.6,0,0,1,96.869,156.711Z"/>
  </g>
</svg>
